<svg width="48" height="48" viewBox="0 0 48 48" fill="none" xmlns="http://www.w3.org/2000/svg">
<rect width="48" height="48" rx="24" fill="#F6F7FF"/>
<path d="M27.7959 30.7041C28.0073 30.9154 28.126 31.2021 28.126 31.501C28.126 31.7999 28.0073 32.0865 27.7959 32.2978C27.5846 32.5092 27.2979 32.6279 26.999 32.6279C26.7002 32.6279 26.4135 32.5092 26.2022 32.2978L18.7022 24.7978C18.5973 24.6933 18.5141 24.5691 18.4573 24.4324C18.4005 24.2956 18.3713 24.149 18.3713 24.001C18.3713 23.8529 18.4005 23.7063 18.4573 23.5696C18.5141 23.4328 18.5973 23.3086 18.7022 23.2041L26.2022 15.7041C26.4135 15.4928 26.7002 15.374 26.999 15.374C27.2979 15.374 27.5846 15.4928 27.7959 15.7041C28.0073 15.9154 28.126 16.2021 28.126 16.501C28.126 16.7999 28.0073 17.0865 27.7959 17.2978L21.0937 24L27.7959 30.7041Z" fill="black"/>
</svg>
