<svg width="48" height="48" viewBox="0 0 48 48" fill="none" xmlns="http://www.w3.org/2000/svg">
<rect x="48" y="48" width="48" height="48" rx="24" transform="rotate(-180 48 48)" fill="#F6F7FF"/>
<path d="M20.2041 17.2959C19.9927 17.0846 19.874 16.7979 19.874 16.499C19.874 16.2001 19.9927 15.9135 20.2041 15.7022C20.4154 15.4908 20.7021 15.3721 21.001 15.3721C21.2998 15.3721 21.5865 15.4908 21.7978 15.7022L29.2978 23.2022C29.4027 23.3067 29.4859 23.4309 29.5427 23.5676C29.5995 23.7044 29.6287 23.851 29.6287 23.999C29.6287 24.1471 29.5995 24.2937 29.5427 24.4304C29.4859 24.5672 29.4027 24.6914 29.2978 24.7959L21.7978 32.2959C21.5865 32.5072 21.2998 32.626 21.001 32.626C20.7021 32.626 20.4154 32.5072 20.2041 32.2959C19.9927 32.0846 19.874 31.7979 19.874 31.499C19.874 31.2001 19.9927 30.9135 20.2041 30.7021L26.9063 24L20.2041 17.2959Z" fill="black"/>
</svg>
