<svg width="24" height="20" viewBox="0 0 24 20" fill="none" xmlns="http://www.w3.org/2000/svg">
<path d="M9.02692 18.7884C8.31192 18.7884 8.43342 18.5202 8.18682 17.8438L6.08423 10.9686L22.269 1.42884" fill="#C8DAEA"/>
<path d="M9.0271 18.7883C9.57885 18.7883 9.82264 18.5376 10.1306 18.2401L13.0733 15.3972L9.40266 13.198" fill="#A9C9DD"/>
<path d="M9.40213 13.1987L18.2964 19.7276C19.3114 20.284 20.0439 19.9959 20.2967 18.7913L23.9171 1.84053C24.2878 0.364012 23.3507 -0.305666 22.3797 0.132307L1.12058 8.27688C-0.33055 8.85517 -0.32209 9.65954 0.856072 10.018L6.31164 11.7097L18.9419 3.79286C19.5381 3.43363 20.0853 3.62676 19.6362 4.02281" fill="url(#paint0_linear_180_1501)"/>
<defs>
<linearGradient id="paint0_linear_180_1501" x1="10.3103" y1="10.0852" x2="12.6408" y2="17.6725" gradientUnits="userSpaceOnUse">
<stop stop-color="#EFF7FC"/>
<stop offset="1" stop-color="white"/>
</linearGradient>
</defs>
</svg>
