<svg width="24" height="24" viewBox="0 0 24 24" fill="none" xmlns="http://www.w3.org/2000/svg">
<path d="M12.0498 0C15.2465 0.00137307 18.2468 1.24033 20.5029 3.48828C22.759 5.73612 24.0013 8.72374 24 11.9014C23.9973 18.457 18.6383 23.7913 12.0498 23.7939H12.0449C10.0452 23.7932 8.08017 23.294 6.33496 22.3467L0 24L1.69531 17.8369C0.649698 16.0334 0.0996892 13.9875 0.100586 11.8916C0.103354 5.33471 5.46341 0.000174331 12.0498 0ZM12.0537 2.00879C6.57539 2.00904 2.12041 6.44282 2.11816 11.8926C2.11739 13.7603 2.64249 15.5796 3.63672 17.1533L3.87207 17.5273L2.86914 21.1748L6.62793 20.1934L6.99121 20.4072C8.51606 21.3078 10.2638 21.7844 12.0459 21.7852H12.0498C17.5241 21.7852 21.9802 17.3508 21.9824 11.9004C21.9834 9.25929 20.9513 6.77556 19.0762 4.90723C17.201 3.03891 14.7065 2.0097 12.0537 2.00879ZM8.3916 6.41016C8.57483 6.41931 8.82114 6.34089 9.06348 6.91992C9.31229 7.51492 9.90973 8.9782 9.98438 9.12695C10.059 9.27565 10.1083 9.44917 10.0088 9.64746C9.90931 9.84556 9.85921 9.97013 9.70996 10.1436C9.5608 10.3169 9.3969 10.531 9.2627 10.6641C9.11325 10.8122 8.9577 10.9731 9.13184 11.2705C9.30629 11.5684 9.90569 12.5415 10.793 13.3291C11.9333 14.3413 12.8958 14.655 13.1943 14.8037C13.4925 14.9522 13.6668 14.9276 13.8408 14.7295C14.0149 14.5312 14.5869 13.862 14.7861 13.5645C14.9851 13.2671 15.1844 13.3159 15.458 13.415C15.7317 13.5143 17.1989 14.2328 17.498 14.3818C17.7966 14.5306 17.9957 14.6055 18.0703 14.7295C18.1448 14.8537 18.1451 15.4486 17.8965 16.1426C17.6474 16.8366 16.4545 17.4704 15.8809 17.5557C15.3665 17.6322 14.7152 17.6637 14 17.4375C13.5664 17.3006 13.0101 17.1176 12.2979 16.8115C9.3027 15.5243 7.34654 12.5226 7.19727 12.3242C7.0472 12.1249 5.97871 10.7128 5.97852 9.25098C5.97852 7.78842 6.74975 7.06898 7.02344 6.77148C7.29703 6.47418 7.62032 6.39944 7.81934 6.39941C8.01832 6.39941 8.21766 6.40147 8.3916 6.41016Z" fill="#FDFDFD"/>
</svg>
