<svg width="40" height="40" viewBox="0 0 40 40" fill="none" xmlns="http://www.w3.org/2000/svg">
<path opacity="0.2" d="M32.5 11.25V28.75C32.5 29.0815 32.3683 29.3995 32.1339 29.6339C31.8995 29.8683 31.5815 30 31.25 30H27.5V16.25L21.25 10H12.5V6.25C12.5 5.91848 12.6317 5.60054 12.8661 5.36612C13.1005 5.1317 13.4185 5 13.75 5H26.25L32.5 11.25Z" fill="#180090"/>
<path d="M33.3844 10.3656L27.1344 4.11563C27.0182 3.99958 26.8803 3.90756 26.7286 3.84483C26.5768 3.78209 26.4142 3.74987 26.25 3.75H13.75C13.087 3.75 12.4511 4.01339 11.9822 4.48223C11.5134 4.95107 11.25 5.58696 11.25 6.25V8.75H8.75C8.08696 8.75 7.45107 9.01339 6.98223 9.48223C6.51339 9.95107 6.25 10.587 6.25 11.25V33.75C6.25 34.413 6.51339 35.0489 6.98223 35.5178C7.45107 35.9866 8.08696 36.25 8.75 36.25H26.25C26.913 36.25 27.5489 35.9866 28.0178 35.5178C28.4866 35.0489 28.75 34.413 28.75 33.75V31.25H31.25C31.913 31.25 32.5489 30.9866 33.0178 30.5178C33.4866 30.0489 33.75 29.413 33.75 28.75V11.25C33.7501 11.0858 33.7179 10.9232 33.6552 10.7714C33.5924 10.6197 33.5004 10.4818 33.3844 10.3656ZM26.25 33.75H8.75V11.25H20.7328L26.25 16.7672V29.975C26.25 29.9844 26.25 29.9922 26.25 30C26.25 30.0078 26.25 30.0156 26.25 30.025V33.75ZM31.25 28.75H28.75V16.25C28.7501 16.0858 28.7179 15.9232 28.6552 15.7714C28.5924 15.6197 28.5004 15.4818 28.3844 15.3656L22.1344 9.11563C22.0182 8.99958 21.8803 8.90756 21.7286 8.84483C21.5768 8.78209 21.4142 8.74987 21.25 8.75H13.75V6.25H25.7328L31.25 11.7672V28.75Z" fill="#091520"/>
<path d="M12.0967 24.86C12.1606 25.0058 12.2542 25.1382 12.3722 25.2498L14.9097 27.6473C15.0276 27.7591 15.1676 27.8478 15.3218 27.9083C15.476 27.9688 15.6414 28 15.8084 28C15.9754 28 16.1407 27.9688 16.2949 27.9083C16.4491 27.8478 16.5892 27.7591 16.707 27.6473L22.6278 22.0508C22.8661 21.8255 23 21.5199 23 21.2013C23 20.8827 22.8661 20.5772 22.6278 20.3519C22.3894 20.1266 22.0661 20 21.7291 20C21.392 20 21.0687 20.1266 20.8304 20.3519L15.8073 25.1009L14.1696 23.5509C14.0516 23.4393 13.9115 23.3508 13.7573 23.2904C13.6031 23.2301 13.4378 23.199 13.2709 23.199C13.104 23.199 12.9388 23.2301 12.7846 23.2904C12.6304 23.3508 12.4903 23.4393 12.3722 23.5509C12.2542 23.6624 12.1606 23.7948 12.0967 23.9406C12.0329 24.0863 12 24.2426 12 24.4003C12 24.5581 12.0329 24.7143 12.0967 24.86Z" fill="black"/>
</svg>
