<svg width="40" height="40" viewBox="0 0 40 40" fill="none" xmlns="http://www.w3.org/2000/svg">
<path opacity="0.2" d="M21.25 16.875C21.25 18.482 20.7735 20.0529 19.8807 21.389C18.9879 22.7252 17.719 23.7666 16.2343 24.3815C14.7497 24.9965 13.116 25.1574 11.5399 24.8439C9.9638 24.5304 8.51606 23.7565 7.37976 22.6202C6.24346 21.4839 5.46963 20.0362 5.15612 18.4601C4.84262 16.884 5.00352 15.2503 5.61848 13.7657C6.23344 12.281 7.27485 11.0121 8.611 10.1193C9.94714 9.22652 11.518 8.75 13.125 8.75C15.2799 8.75 17.3465 9.60602 18.8702 11.1298C20.394 12.6535 21.25 14.7201 21.25 16.875Z" fill="#180090"/>
<path d="M18.3203 24.675C19.9956 23.5597 21.2676 21.9348 21.948 20.0407C22.6284 18.1466 22.6812 16.0838 22.0986 14.1574C21.516 12.2309 20.3289 10.5431 18.7129 9.3435C17.0968 8.1439 15.1376 7.49622 13.125 7.49622C11.1124 7.49622 9.1532 8.1439 7.53716 9.3435C5.92111 10.5431 4.73402 12.2309 4.15141 14.1574C3.5688 16.0838 3.62162 18.1466 4.30204 20.0407C4.98247 21.9348 6.25439 23.5597 7.9297 24.675C4.89922 25.792 2.31112 27.8588 0.551579 30.5672C0.459104 30.7047 0.39487 30.8591 0.362612 31.0216C0.330354 31.1841 0.330715 31.3514 0.363675 31.5137C0.396634 31.676 0.461534 31.8302 0.554602 31.9673C0.64767 32.1043 0.76705 32.2215 0.905802 32.312C1.04455 32.4025 1.19991 32.4645 1.36284 32.4944C1.52577 32.5244 1.69303 32.5216 1.85489 32.4863C2.01674 32.451 2.16997 32.3839 2.30567 32.2889C2.44137 32.1939 2.55682 32.0729 2.64533 31.9328C3.78031 30.1872 5.33339 28.7527 7.16351 27.7597C8.99364 26.7666 11.0428 26.2465 13.125 26.2465C15.2072 26.2465 17.2564 26.7666 19.0865 27.7597C20.9166 28.7527 22.4697 30.1872 23.6047 31.9328C23.788 32.2053 24.0713 32.3947 24.3931 32.4601C24.715 32.5254 25.0496 32.4614 25.3247 32.282C25.5998 32.1026 25.7932 31.8221 25.8631 31.5012C25.9331 31.1804 25.8739 30.8448 25.6985 30.5672C23.9389 27.8588 21.3508 25.792 18.3203 24.675ZM6.25002 16.875C6.25002 15.5153 6.65323 14.1861 7.40866 13.0555C8.1641 11.9249 9.23783 11.0437 10.4941 10.5233C11.7503 10.003 13.1326 9.86685 14.4663 10.1321C15.7999 10.3974 17.0249 11.0522 17.9864 12.0137C18.9479 12.9751 19.6026 14.2002 19.8679 15.5338C20.1332 16.8674 19.997 18.2497 19.4767 19.506C18.9563 20.7622 18.0751 21.8359 16.9446 22.5914C15.814 23.3468 14.4848 23.75 13.125 23.75C11.3023 23.748 9.55481 23.023 8.26594 21.7341C6.97708 20.4452 6.25208 18.6977 6.25002 16.875ZM39.0844 32.2969C38.8067 32.478 38.4685 32.5413 38.1442 32.473C37.8198 32.4048 37.5358 32.2105 37.3547 31.9328C36.2211 30.1861 34.6682 28.751 32.8377 27.7584C31.0072 26.7658 28.9573 26.2472 26.875 26.25C26.5435 26.25 26.2256 26.1183 25.9911 25.8839C25.7567 25.6495 25.625 25.3315 25.625 25C25.625 24.6685 25.7567 24.3506 25.9911 24.1161C26.2256 23.8817 26.5435 23.75 26.875 23.75C27.8875 23.7491 28.8872 23.5245 29.8028 23.0924C30.7184 22.6603 31.5273 22.0313 32.1716 21.2503C32.8159 20.4693 33.2798 19.5557 33.5301 18.5747C33.7804 17.5936 33.811 16.5694 33.6195 15.5753C33.4281 14.5811 33.0195 13.6414 32.4228 12.8235C31.8262 12.0055 31.0562 11.3294 30.168 10.8435C29.2798 10.3576 28.2952 10.0739 27.2846 10.0126C26.274 9.95135 25.2623 10.114 24.3219 10.4891C24.1686 10.5554 24.0035 10.5902 23.8365 10.5917C23.6694 10.5931 23.5038 10.561 23.3493 10.4973C23.1949 10.4336 23.0548 10.3396 22.9373 10.2209C22.8198 10.1021 22.7273 9.96104 22.6653 9.80594C22.6033 9.65084 22.5729 9.48488 22.5761 9.31786C22.5793 9.15084 22.6159 8.98616 22.6838 8.83354C22.7518 8.68092 22.8496 8.54346 22.9715 8.42928C23.0934 8.3151 23.237 8.22652 23.3938 8.16877C25.5461 7.31041 27.94 7.27952 30.1137 8.08206C32.2874 8.8846 34.0869 10.4637 35.165 12.5147C36.2431 14.5658 36.5235 16.9434 35.952 19.189C35.3806 21.4345 33.9977 23.3889 32.0703 24.675C35.1008 25.792 37.6889 27.8588 39.4485 30.5672C39.6295 30.8449 39.6929 31.1831 39.6246 31.5074C39.5563 31.8318 39.362 32.1158 39.0844 32.2969Z" fill="#091520"/>
</svg>
