<svg width="40" height="40" viewBox="0 0 40 40" fill="none" xmlns="http://www.w3.org/2000/svg">
<path opacity="0.1" d="M30 15C30 16.9778 29.4135 18.9112 28.3147 20.5557C27.2159 22.2002 25.6541 23.4819 23.8268 24.2388C21.9996 24.9957 19.9889 25.1937 18.0491 24.8079C16.1093 24.422 14.3275 23.4696 12.9289 22.0711C11.5304 20.6725 10.578 18.8907 10.1922 16.9509C9.8063 15.0111 10.0043 13.0004 10.7612 11.1732C11.5181 9.3459 12.7998 7.78412 14.4443 6.6853C16.0888 5.58649 18.0222 5 20 5C22.6522 5 25.1957 6.05357 27.0711 7.92893C28.9464 9.8043 30 12.3478 30 15Z" fill="#180090"/>
<path d="M36.0812 33.125C33.7016 29.0109 30.0344 26.0609 25.7547 24.6625C27.8716 23.4023 29.5163 21.482 30.4363 19.1965C31.3562 16.9111 31.5005 14.3869 30.847 12.0115C30.1934 9.63609 28.7782 7.54091 26.8187 6.04767C24.8592 4.55444 22.4636 3.74573 20 3.74573C17.5364 3.74573 15.1408 4.55444 13.1813 6.04767C11.2217 7.54091 9.80655 9.63609 9.15303 12.0115C8.4995 14.3869 8.64379 16.9111 9.56373 19.1965C10.4837 21.482 12.1284 23.4023 14.2453 24.6625C9.96562 26.0594 6.29843 29.0094 3.91875 33.125C3.83148 33.2673 3.77359 33.4256 3.74851 33.5906C3.72342 33.7557 3.73165 33.924 3.77269 34.0858C3.81373 34.2476 3.88677 34.3996 3.98748 34.5327C4.0882 34.6658 4.21455 34.7774 4.3591 34.8609C4.50364 34.9444 4.66344 34.9981 4.82907 35.0188C4.9947 35.0395 5.16281 35.0269 5.32347 34.9816C5.48413 34.9363 5.63409 34.8593 5.76451 34.7551C5.89492 34.6509 6.00315 34.5217 6.08281 34.375C9.02656 29.2875 14.2297 26.25 20 26.25C25.7703 26.25 30.9734 29.2875 33.9172 34.375C33.9968 34.5217 34.1051 34.6509 34.2355 34.7551C34.3659 34.8593 34.5159 34.9363 34.6765 34.9816C34.8372 35.0269 35.0053 35.0395 35.1709 35.0188C35.3365 34.9981 35.4963 34.9444 35.6409 34.8609C35.7854 34.7774 35.9118 34.6658 36.0125 34.5327C36.1132 34.3996 36.1863 34.2476 36.2273 34.0858C36.2683 33.924 36.2766 33.7557 36.2515 33.5906C36.2264 33.4256 36.1685 33.2673 36.0812 33.125ZM11.25 15C11.25 13.2694 11.7632 11.5777 12.7246 10.1387C13.6861 8.69981 15.0527 7.5783 16.6515 6.91603C18.2504 6.25377 20.0097 6.08049 21.707 6.41811C23.4044 6.75573 24.9635 7.58908 26.1872 8.81279C27.4109 10.0365 28.2442 11.5956 28.5819 13.2929C28.9195 14.9903 28.7462 16.7496 28.0839 18.3485C27.4217 19.9473 26.3002 21.3139 24.8612 22.2753C23.4223 23.2368 21.7306 23.75 20 23.75C17.6801 23.7475 15.456 22.8248 13.8156 21.1844C12.1751 19.544 11.2525 17.3199 11.25 15Z" fill="#091520"/>
</svg>
