<svg width="384" height="348" viewBox="0 0 384 348" fill="none" xmlns="http://www.w3.org/2000/svg">
<mask id="mask0_2075_600" style="mask-type:luminance" maskUnits="userSpaceOnUse" x="2" y="0" width="377" height="117">
<path d="M2.73486 66.5451L194.427 0L378.252 50.2806L186.559 116.826L2.73486 66.5451Z" fill="white"/>
</mask>
<g mask="url(#mask0_2075_600)">
<path d="M142.977 54.8966L188.741 45.1069C197.469 43.2481 206.505 42.3187 215.91 42.3497C225.284 42.3807 233.552 43.403 240.682 45.3547L272.462 54.0601L214.035 74.352L143.007 54.9276M336.605 51.9535L276.488 35.5031C234.628 24.1025 195.41 22.3986 158.805 30.3914L24.2178 59.7295C23.0192 60.0083 21.7898 60.3491 20.4682 60.7828C19.1466 61.2165 18.286 61.8981 17.8865 62.8275C17.4562 63.7569 18.7163 64.6243 21.6054 65.3988L43.5807 71.4089C46.4697 72.2144 50.2194 72.6172 54.7989 72.6481C59.3783 72.6481 63.589 72.2454 67.3694 71.4089L103.052 63.6639L182.317 85.35L154.103 95.1396C151.029 96.193 149.523 97.3392 149.492 98.5784C149.492 99.8176 150.998 100.84 154.041 101.676L175.002 107.408C177.891 108.213 181.395 108.554 185.452 108.43C189.509 108.306 192.982 107.749 195.902 106.726L335.714 58.1805C338.48 57.2201 339.986 56.1358 340.263 54.8966C340.539 53.6884 339.31 52.697 336.544 51.9225" fill="#180090"/>
</g>
<mask id="mask1_2075_600" style="mask-type:luminance" maskUnits="userSpaceOnUse" x="183" y="50" width="201" height="298">
<path d="M183.824 116.609L375.516 50.0947L383.999 281.454L192.307 347.999L183.824 116.609Z" fill="white"/>
</mask>
<g mask="url(#mask1_2075_600)">
<path d="M244.587 266.738L242.835 218.812L312.879 194.493C319.18 192.324 324.067 192.789 327.57 195.887C331.074 198.985 332.949 204.251 333.226 211.686C333.502 219.122 332.027 225.534 328.861 230.987C325.665 236.439 320.932 240.219 314.631 242.419L244.587 266.738ZM241.482 182.193L240.007 142.353L305.503 119.614C310.636 117.817 314.815 118.158 318.073 120.605C321.3 123.053 323.022 127.421 323.268 133.679C323.483 139.937 322.13 145.358 319.149 149.912C316.168 154.466 312.111 157.657 306.978 159.423L241.482 182.162M303.659 82.004L204.14 116.547C200.943 117.662 198.269 119.924 196.087 123.3C193.905 126.708 192.86 130.178 193.014 133.803L199.376 307.229C199.499 310.853 200.759 313.549 203.126 315.315C205.492 317.08 208.289 317.39 211.485 316.306L316.752 279.75C334.947 273.43 350.13 262.865 362.27 248.088C374.41 233.28 380.127 215.807 379.389 195.67C378.651 175.502 370.261 163.389 354.248 159.237C364.882 145.203 369.954 131.324 369.462 117.631C368.97 103.938 365.313 93.7764 358.551 87.2087C346.38 75.2504 328.093 73.5155 303.659 81.9731" fill="#180090"/>
</g>
<mask id="mask2_2075_600" style="mask-type:luminance" maskUnits="userSpaceOnUse" x="0" y="66" width="193" height="282">
<path d="M192.307 347.999L8.48278 297.687L0 66.3283L183.824 116.609L192.307 347.999Z" fill="white"/>
</mask>
<g mask="url(#mask2_2075_600)">
<path d="M168.181 118.034L140.55 110.475C133.297 108.585 127.734 111.497 123.831 119.211L106.711 152.391C102.286 160.972 97.5217 166.735 92.3583 169.74C87.2256 172.714 81.1401 173.24 74.1326 171.32L48.4076 164.287L45.9796 97.9279C45.8567 94.3342 44.6273 90.8954 42.3529 87.6116C40.0478 84.3277 37.3739 82.252 34.2389 81.4155L11.7411 75.2505C8.63693 74.4141 6.02448 75.0027 3.87305 77.0783C1.75235 79.154 0.738108 81.9732 0.861047 85.5669L7.1924 257.816C7.31534 261.41 8.54472 264.848 10.8806 268.101C13.2164 271.354 15.9211 273.399 19.0253 274.235L41.5231 280.4C44.6273 281.237 47.2397 280.741 49.3297 278.913C51.4504 277.054 52.4032 274.328 52.2802 270.734L49.8214 203.384L75.5464 210.416C82.7383 212.368 88.9467 216.427 94.2331 222.592C99.5195 228.757 104.837 237.214 110.184 248.026L132.651 292.451C134.772 296.603 137.692 300.444 141.349 303.945C145.038 307.477 148.418 309.645 151.553 310.513L178.938 318.01C183.087 319.156 185.085 317.669 184.931 313.611C184.87 311.659 184.101 309.181 182.657 306.114L150.723 242.791C146.236 234.147 141.104 225.875 135.325 217.976C129.547 210.076 124.015 204.778 118.698 202.052C126.105 201.959 132.067 199.976 136.524 196.104C141.011 192.2 144.945 186.81 148.418 179.87L172.391 132.502C173.621 129.899 174.205 127.576 174.143 125.438C173.99 121.566 172.023 119.087 168.181 118.034Z" fill="#180090"/>
</g>
</svg>
