<svg width="15" height="15" viewBox="0 0 15 15" fill="none" xmlns="http://www.w3.org/2000/svg">
<path fill-rule="evenodd" clip-rule="evenodd" d="M10.8555 14.7576C9.79123 14.7186 6.77501 14.3016 3.61616 11.1435C0.458043 7.98467 0.0419372 4.9692 0.00202657 3.90417C-0.0571003 2.28115 1.18604 0.704673 2.62208 0.0890188C2.79501 0.0143468 2.98439 -0.0140842 3.17161 0.00651883C3.35885 0.0271198 3.53751 0.0960468 3.69007 0.206534C4.8726 1.06831 5.68856 2.37205 6.38921 3.39716C6.54337 3.62239 6.60928 3.89645 6.57439 4.16715C6.53949 4.43783 6.40624 4.68623 6.2 4.86499L4.75804 5.93592C4.68839 5.98623 4.63935 6.06011 4.62004 6.14385C4.60073 6.22759 4.61248 6.31548 4.65309 6.3912C4.97977 6.98469 5.56069 7.86864 6.22587 8.53381C6.89105 9.19899 7.81712 9.81838 8.452 10.182C8.5316 10.2267 8.62529 10.2392 8.71383 10.2169C8.80235 10.1946 8.87899 10.1393 8.92797 10.0623L9.86661 8.63359C10.0392 8.40436 10.2937 8.25079 10.577 8.20505C10.8603 8.15932 11.1502 8.22495 11.3862 8.38821C12.4261 9.10808 13.6396 9.90998 14.528 11.0475C14.6475 11.2011 14.7235 11.384 14.748 11.5771C14.7727 11.7702 14.7449 11.9663 14.6677 12.145C14.0491 13.5884 12.4837 14.8175 10.8555 14.7576Z" fill="white"/>
</svg>
