<svg width="16" height="16" viewBox="0 0 16 16" fill="none" xmlns="http://www.w3.org/2000/svg">
<path d="M15.845 10.6666C15.7506 11.4627 15.615 12.2535 15.4387 13.0356C15.1834 14.0981 14.1009 15.1816 13.0378 15.4366C11.4359 15.7983 9.79972 15.9872 8.15749 16H7.84499C6.203 15.9874 4.56709 15.7988 2.9653 15.4375C1.9028 15.1828 0.820301 14.1 0.564363 13.0366C0.387877 12.2541 0.25207 11.4631 0.157488 10.6666C-0.0524961 8.89495 -0.0524961 7.10474 0.157488 5.33313C0.251844 4.53715 0.387443 3.74661 0.563738 2.96469C0.819676 1.90219 1.90343 0.818441 2.96468 0.563441C6.27994 -0.187814 9.72129 -0.187814 13.0366 0.563441C14.0991 0.818754 15.1822 1.9025 15.4375 2.96469C15.6138 3.74661 15.7494 4.53715 15.8437 5.33313C16.0541 7.10469 16.0546 8.89491 15.845 10.6666Z" fill="#0039A6"/>
<path d="M2.9873 0.660156C6.28751 -0.0875791 9.71346 -0.0875431 13.0137 0.660156V0.661133C13.5226 0.783568 14.043 1.10643 14.4688 1.53223C14.8414 1.90499 15.1355 2.35035 15.2852 2.79688L15.3398 2.98828C15.5152 3.76627 15.6503 4.55276 15.7441 5.34473C15.9536 7.10847 15.9547 8.89143 15.7461 10.6553C15.6756 11.2496 15.5812 11.8408 15.4648 12.4277L15.3408 13.0137C15.2182 13.5222 14.8959 14.0423 14.4707 14.4678C14.0982 14.8404 13.6528 15.1346 13.2061 15.2842L13.0146 15.3389C11.42 15.6989 9.79098 15.8876 8.15625 15.9004H7.8457C6.21088 15.8878 4.58211 15.6996 2.9873 15.3398H2.98828C2.47934 15.2177 1.95887 14.8954 1.5332 14.4697C1.10784 14.0443 0.785045 13.5238 0.662109 13.0146C0.53028 12.4302 0.42097 11.8408 0.334961 11.248L0.256836 10.6543C0.047836 8.89066 0.0477975 7.10836 0.256836 5.34473C0.350721 4.55277 0.485782 3.76626 0.661133 2.98828C0.783783 2.47911 1.10722 1.95824 1.5332 1.53223C1.95903 1.10637 2.47899 0.782445 2.9873 0.660156Z" stroke="black" stroke-opacity="0.15" stroke-width="0.2"/>
<path d="M15.845 10.6666C15.7506 11.4627 15.615 12.2535 15.4387 13.0356C15.1834 14.0981 14.1009 15.1816 13.0378 15.4366C11.4358 15.7983 9.79971 15.9872 8.15747 16H7.84497C6.20298 15.9874 4.56707 15.7988 2.96528 15.4375C1.90278 15.1828 0.820283 14.1 0.564346 13.0366C0.387859 12.2541 0.252052 11.4631 0.157471 10.6666H15.845Z" fill="#D52B1E"/>
<path d="M15.7307 10.7662C15.6375 11.5208 15.5082 12.2705 15.3411 13.0123C15.2187 13.5213 14.8966 14.0425 14.4709 14.4683C14.0985 14.8409 13.653 15.1352 13.2063 15.2847L13.0149 15.3394C11.4202 15.6995 9.79127 15.8872 8.15649 15.9H7.84595C6.21122 15.8874 4.58226 15.7001 2.98755 15.3404H2.98853C2.47943 15.2184 1.95923 14.8951 1.53345 14.4693C1.10792 14.0437 0.78421 13.5236 0.661377 13.0142H0.662354C0.494896 12.2718 0.365144 11.5215 0.271729 10.7662H15.7307Z" stroke="black" stroke-opacity="0.15" stroke-width="0.2"/>
<path d="M15.845 5.33313H0.157471C0.251826 4.53715 0.387425 3.74661 0.563721 2.96469C0.819658 1.90219 1.90341 0.818441 2.96466 0.563441C6.27992 -0.187814 9.72127 -0.187814 13.0365 0.563441C14.099 0.818754 15.1822 1.9025 15.4375 2.96469C15.6142 3.74659 15.7502 4.53713 15.845 5.33313Z" fill="white"/>
<path d="M2.98657 0.660156C6.28676 -0.0876814 9.71272 -0.0874403 13.0129 0.660156V0.661133C13.5221 0.783475 14.0431 1.10622 14.469 1.53223C14.8417 1.90501 15.1358 2.35034 15.2854 2.79688L15.3401 2.98828C15.5076 3.72972 15.6372 4.47909 15.7307 5.2334H0.271729C0.364876 4.4791 0.494252 3.72976 0.661377 2.98828C0.783994 2.47925 1.10667 1.95818 1.53247 1.53223C1.9583 1.10636 2.47923 0.783417 2.98755 0.661133L2.98657 0.660156Z" stroke="black" stroke-opacity="0.15" stroke-width="0.2"/>
</svg>
