<svg width="36" height="36" viewBox="0 0 36 36" fill="none" xmlns="http://www.w3.org/2000/svg">
<rect width="36" height="36" rx="12" fill="url(#paint0_radial_2029_2631)"/>
<rect width="36" height="36" rx="12" fill="url(#paint1_radial_2029_2631)"/>
<path d="M18.0011 6C14.7421 6 14.3331 6.01425 13.0531 6.0725C11.7756 6.131 10.9036 6.33325 10.1405 6.63C9.35128 6.9365 8.68178 7.3465 8.01477 8.01375C7.34726 8.68075 6.93726 9.35025 6.62976 10.1392C6.33225 10.9025 6.12975 11.7748 6.07225 13.0518C6.015 14.3317 6 14.741 6 18C6 21.259 6.0145 21.6668 6.0725 22.9468C6.13125 24.2243 6.3335 25.0962 6.63001 25.8592C6.93676 26.6485 7.34676 27.318 8.01402 27.985C8.68078 28.6525 9.35028 29.0635 10.139 29.37C10.9026 29.6667 11.7748 29.869 13.0521 29.9275C14.3321 29.9858 14.7408 30 17.9996 30C21.2589 30 21.6667 29.9858 22.9467 29.9275C24.2242 29.869 25.0972 29.6667 25.8607 29.37C26.6497 29.0635 27.3182 28.6525 27.985 27.985C28.6525 27.318 29.0625 26.6485 29.37 25.8595C29.665 25.0963 29.8675 24.224 29.9275 22.947C29.985 21.667 30 21.259 30 18C30 14.741 29.985 14.332 29.9275 13.052C29.8675 11.7745 29.665 10.9025 29.37 10.1395C29.0625 9.35025 28.6525 8.68075 27.985 8.01375C27.3175 7.34625 26.65 6.93625 25.86 6.63C25.0949 6.33325 24.2224 6.131 22.9449 6.0725C21.6649 6.01425 21.2574 6 17.9974 6H18.0011ZM16.9246 8.1625C17.2441 8.162 17.6006 8.1625 18.0011 8.1625C21.2052 8.1625 21.5849 8.174 22.8502 8.2315C24.0202 8.285 24.6552 8.4805 25.0782 8.64475C25.6382 8.86225 26.0375 9.12225 26.4572 9.54225C26.8772 9.96225 27.1372 10.3622 27.3552 10.9222C27.5195 11.3447 27.7152 11.9797 27.7685 13.1497C27.826 14.4148 27.8385 14.7947 27.8385 17.9972C27.8385 21.1997 27.826 21.5797 27.7685 22.8447C27.715 24.0147 27.5195 24.6497 27.3552 25.0723C27.1377 25.6322 26.8772 26.031 26.4572 26.4508C26.0372 26.8708 25.6385 27.1307 25.0782 27.3482C24.6557 27.5133 24.0202 27.7083 22.8502 27.7617C21.5852 27.8193 21.2052 27.8318 18.0011 27.8318C14.7968 27.8318 14.4171 27.8193 13.1521 27.7617C11.9821 27.7077 11.3471 27.5122 10.9238 27.348C10.3638 27.1305 9.96379 26.8705 9.54379 26.4505C9.12378 26.0305 8.86378 25.6315 8.64578 25.0713C8.48153 24.6488 8.28577 24.0138 8.23252 22.8438C8.17502 21.5787 8.16352 21.1987 8.16352 17.9942C8.16352 14.7897 8.17502 14.4118 8.23252 13.1468C8.28602 11.9768 8.48153 11.3417 8.64578 10.9187C8.86328 10.3587 9.12378 9.95875 9.54379 9.53875C9.96379 9.11875 10.3638 8.85875 10.9238 8.64075C11.3468 8.47575 11.9821 8.28075 13.1521 8.227C14.2591 8.177 14.6881 8.162 16.9246 8.1595V8.1625ZM24.4067 10.155C23.6117 10.155 22.9667 10.7992 22.9667 11.5945C22.9667 12.3895 23.6117 13.0345 24.4067 13.0345C25.2017 13.0345 25.8467 12.3895 25.8467 11.5945C25.8467 10.7995 25.2017 10.1545 24.4067 10.1545V10.155ZM18.0011 11.8375C14.5978 11.8375 11.8386 14.5968 11.8386 18C11.8386 21.4032 14.5978 24.1612 18.0011 24.1612C21.4044 24.1612 24.1627 21.4032 24.1627 18C24.1627 14.5968 21.4042 11.8375 18.0009 11.8375H18.0011ZM18.0011 14C20.2101 14 22.0012 15.7908 22.0012 18C22.0012 20.209 20.2101 22 18.0011 22C15.7919 22 14.0011 20.209 14.0011 18C14.0011 15.7908 15.7919 14 18.0011 14Z" fill="white"/>
<defs>
<radialGradient id="paint0_radial_2029_2631" cx="0" cy="0" r="1" gradientUnits="userSpaceOnUse" gradientTransform="translate(9.56255 38.7728) rotate(-90) scale(35.6787 33.184)">
<stop stop-color="#FFDD55"/>
<stop offset="0.1" stop-color="#FFDD55"/>
<stop offset="0.5" stop-color="#FF543E"/>
<stop offset="1" stop-color="#C837AB"/>
</radialGradient>
<radialGradient id="paint1_radial_2029_2631" cx="0" cy="0" r="1" gradientTransform="matrix(3.13033 15.6383 -64.4603 12.9103 -6.03019 2.59338)" gradientUnits="userSpaceOnUse">
<stop stop-color="#3771C8"/>
<stop offset="0.128" stop-color="#3771C8"/>
<stop offset="1" stop-color="#6600FF" stop-opacity="0"/>
</radialGradient>
</defs>
</svg>
