<svg width="36" height="36" viewBox="0 0 36 36" fill="none" xmlns="http://www.w3.org/2000/svg">
<rect width="36" height="36" rx="12" fill="url(#paint0_linear_2029_2624)"/>
<path d="M15.027 26.8453C14.312 26.8453 14.4334 26.5753 14.1868 25.8945L12.0843 18.9747L28.2691 9.37305" fill="#C8DAEA"/>
<path d="M15.027 26.8454C15.5788 26.8454 15.8226 26.593 16.1305 26.2936L19.0732 23.4322L15.4026 21.2188" fill="#A9C9DD"/>
<path d="M15.4021 21.2194L24.2964 27.7906C25.3114 28.3507 26.0439 28.0607 26.2967 26.8483L29.9171 9.78753C30.2878 8.30143 29.3507 7.62741 28.3797 8.06822L7.12058 16.2656C5.66945 16.8477 5.67791 17.6573 6.85607 18.018L12.3116 19.7208L24.9419 11.7525C25.5381 11.391 26.0853 11.5854 25.6362 11.984" fill="url(#paint1_linear_2029_2624)"/>
<defs>
<linearGradient id="paint0_linear_2029_2624" x1="13.5018" y1="1.5012" x2="4.5018" y2="22.5" gradientUnits="userSpaceOnUse">
<stop stop-color="#37AEE2"/>
<stop offset="1" stop-color="#1E96C8"/>
</linearGradient>
<linearGradient id="paint1_linear_2029_2624" x1="16.3103" y1="18.0857" x2="18.6685" y2="25.7136" gradientUnits="userSpaceOnUse">
<stop stop-color="#EFF7FC"/>
<stop offset="1" stop-color="white"/>
</linearGradient>
</defs>
</svg>
