<svg width="36" height="36" viewBox="0 0 36 36" fill="none" xmlns="http://www.w3.org/2000/svg">
<rect width="36" height="36" rx="12" fill="#25D366"/>
<path d="M18.0498 6C21.2312 6.00137 24.2176 7.24033 26.4629 9.48828C28.708 11.7361 29.9436 14.7239 29.9424 17.9014C29.9397 24.457 24.6068 29.7913 18.0498 29.7939H18.0449C16.0548 29.7932 14.0992 29.294 12.3623 28.3467L6.05762 30L7.74512 23.8369C6.70446 22.0334 6.15633 19.9876 6.15723 17.8916C6.15998 11.3347 11.4949 6.00014 18.0498 6ZM18.0537 8.00879C12.6016 8.00898 8.16728 12.4428 8.16504 17.8926C8.16427 19.7603 8.68728 21.5796 9.67676 23.1533L9.91113 23.5273L8.91309 27.1748L12.6543 26.1934L13.0146 26.4072C14.5322 27.3078 16.2723 27.7844 18.0459 27.7852H18.0498C23.4979 27.7852 27.9324 23.3508 27.9346 17.9004C27.9355 15.2593 26.9081 12.7756 25.042 10.9072C23.1758 9.03906 20.6937 8.0097 18.0537 8.00879ZM14.4092 12.4102C14.5915 12.4193 14.8369 12.3408 15.0781 12.9199C15.3257 13.5149 15.9199 14.9782 15.9941 15.127C16.0684 15.2757 16.1176 15.4491 16.0186 15.6475C15.9195 15.8456 15.8702 15.9701 15.7217 16.1436C15.5732 16.317 15.409 16.5309 15.2754 16.6641C15.1268 16.8121 14.9723 16.9733 15.1455 17.2705C15.319 17.5683 15.9157 18.5413 16.7988 19.3291C17.9337 20.3413 18.8913 20.655 19.1885 20.8037C19.4853 20.9524 19.6588 20.9275 19.832 20.7295C20.0054 20.5312 20.5753 19.8619 20.7734 19.5645C20.9714 19.2672 21.1692 19.316 21.4414 19.415C21.7137 19.5142 23.1735 20.2326 23.4717 20.3818C23.7688 20.5306 23.9677 20.6055 24.042 20.7295C24.116 20.8542 24.1154 21.449 23.8682 22.1426C23.6202 22.8366 22.4332 23.4704 21.8623 23.5557C21.3505 23.6322 20.7028 23.6636 19.9912 23.4375C19.5596 23.3006 19.0058 23.1177 18.2969 22.8115C15.3159 21.5244 13.3693 18.5226 13.2207 18.3242C13.0717 18.1253 12.007 16.7131 12.0068 15.251C12.0068 13.7886 12.7744 13.0691 13.0469 12.7715C13.3192 12.474 13.6418 12.3994 13.8398 12.3994C14.0379 12.3994 14.2361 12.4015 14.4092 12.4102Z" fill="#FDFDFD"/>
</svg>
